<svg xmlns="http://www.w3.org/2000/svg" width="389.85491943359375" height="509.45709228515625" viewBox="-90.32125854492188 -158.9610137939453 389.85491943359375 509.45709228515625"><title>Neo4j Graph Visualization</title><desc>Created using Neo4j (http://www.neo4j.com/)</desc><g class="layer relationships"><g class="relationship" transform="translate(54.53068117410082 222.70414254344414) rotate(482.6320201999507)"><path class="outline" fill="#A5ABB6" stroke="none" d="M 21.40063509461097,-12.933012701892217 L 21.90063509461097,-12.06698729810778 A 64.0064999424293 64.0064999424293 0 0 1 26.04824603473643,-14.26294300582397 L 25.613045874500454,-15.16327673313323 A 65.0064999424293 65.0064999424293 0 0 0 21.40063509461097,-12.933012701892217 Z M 78.65944542667853,-16.744028490047214 L 78.27862873322823,-15.819377936600354 A 64.0064999424293 64.0064999424293 0 0 1 82.54964029030683,-13.874292267484233 L 81.20700687415784,-11.19150723885445 L 89.03324425980115,-11.188611801241564 L 84.33981817850547,-17.451338972323946 L 82.99718476235648,-14.768553943694162 A 65.0064999424293 65.0064999424293 0 0 0 78.65944542667853,-16.744028490047214"/><text text-anchor="middle" pointer-events="none" font-size="8px" fill="#000000" x="51.982481922348796" y="-18.113610289456332" transform="rotate(180 51.982481922348796 -21.113610289456332)" font-family="sans-serif">PURCHASED</text></g><g class="relationship" transform="translate(54.53068117410082 222.70414254344414) rotate(418.6795604058724)"><path class="outline" fill="#A5ABB6" stroke="none" d="M 21.40063509461097,-12.933012701892217 L 21.90063509461097,-12.06698729810778 A 68.39285234412473 68.39285234412473 0 0 1 28.056321709218253,-15.217318480084423 L 27.646326532874888,-16.129406170701493 A 69.39285234412473 69.39285234412473 0 0 0 21.40063509461097,-12.933012701892217 Z M 80.86349932329753,-17.659809668864085 L 80.50659746352378,-16.72566778323319 A 68.39285234412473 68.39285234412473 0 0 1 86.83315375589999,-13.934297200027764 L 85.48493863827737,-11.254312872347125 L 93.31115304009191,-11.235125980188442 L 88.63077391273013,-17.507609636935282 L 87.28255879510752,-14.827625309254643 A 69.39285234412473 69.39285234412473 0 0 0 80.86349932329753,-17.659809668864085"/><text text-anchor="middle" pointer-events="none" font-size="8px" fill="#000000" x="54.116679999874236" y="-18.701422354547645" font-family="sans-serif">PURCHASED</text></g><g class="relationship" transform="translate(54.53068117410082 222.70414254344414) rotate(366.85672783754353)"><path class="outline" fill="#A5ABB6" stroke="none" d="M 21.40063509461097,-12.933012701892217 L 21.90063509461097,-12.06698729810778 A 72.97332141296386 72.97332141296386 0 0 1 30.179269633683056,-16.171150209035744 L 29.792717046775607,-17.093417576752486 A 73.97332141296386 73.97332141296386 0 0 0 21.40063509461097,-12.933012701892217 Z M 83.1554061356364,-18.573845321683507 L 82.8205812303672,-17.631564958515796 A 72.97332141296386 72.97332141296386 0 0 1 91.3140284974741,-13.992705720811148 L 89.96038039462654,-11.315461463434321 L 97.78653978182795,-11.280400857062984 L 93.11889263460417,-17.56236473064692 L 91.76524453175661,-14.885120473270092 A 73.97332141296386 73.97332141296386 0 0 0 83.1554061356364,-18.573845321683507"/><text text-anchor="middle" pointer-events="none" font-size="8px" fill="#000000" x="56.34972777708703" y="-19.315300135028778" font-family="sans-serif">PURCHASED</text></g><g class="relationship" transform="translate(54.53068117410082 222.70414254344414) rotate(311.57212019641986)"><path class="outline" fill="#A5ABB6" stroke="none" d="M 21.40063509461097,-12.933012701892217 L 21.90063509461097,-12.06698729810778 A 63.00675613834147 63.00675613834147 0 0 1 25.594585665964377,-14.039019556266268 L 25.153213514750036,-14.93634370290026 A 64.00675613834147 64.00675613834147 0 0 0 21.40063509461097,-12.933012701892217 Z M 78.15545735030707,-16.528909539344326 L 77.76875685679934,-15.606704178092897 A 63.00675613834147 63.00675613834147 0 0 1 81.57444438362344,-13.860014595197518 L 80.23313911988369,-11.17656528703759 L 88.05937697995324,-11.177543864498052 L 83.36285140194313,-17.437947006077422 L 82.02154613820338,-14.754497697917495 A 64.00675613834147 64.00675613834147 0 0 0 78.15545735030707,-16.528909539344326"/><text text-anchor="middle" pointer-events="none" font-size="8px" fill="#000000" x="51.49667758264883" y="-17.979643485789417" font-family="sans-serif">PURCHASED</text></g><g class="relationship" transform="translate(54.53068117410082 222.70414254344414) rotate(233.86298416496464)"><path class="outline" fill="#A5ABB6" stroke="none" d="M 21.40063509461097,-12.933012701892217 L 21.90063509461097,-12.06698729810778 A 68.61893343377793 68.61893343377793 0 0 1 28.16052922400362,-15.265360557961642 L 27.751756146605587,-16.17799661422643 A 69.61893343377793 69.61893343377793 0 0 0 21.40063509461097,-12.933012701892217 Z M 80.97682699858274,-17.705871146806558 L 80.62108002049034,-16.771288840330485 A 68.61893343377793 68.61893343377793 0 0 1 87.05413926142974,-13.937278462241338 L 85.70564683056021,-11.257433660039613 L 93.53185920504535,-11.237436923912727 L 88.85212916925578,-17.51040486517697 L 87.50363673838625,-14.830560062975245 A 69.61893343377793 69.61893343377793 0 0 0 80.97682699858274,-17.705871146806558"/><text text-anchor="middle" pointer-events="none" font-size="8px" fill="#000000" x="54.226796342091454" y="-18.731720757163615" transform="rotate(180 54.226796342091454 -21.731720757163615)" font-family="sans-serif">PURCHASED</text></g><g class="relationship" transform="translate(54.53068117410082 222.70414254344414) rotate(186.44560463047605)"><path class="outline" fill="#A5ABB6" stroke="none" d="M 21.40063509461097,-12.933012701892217 L 21.90063509461097,-12.06698729810778 A 69.36535571410354 69.36535571410354 0 0 1 28.5050271872713,-15.423231169346742 L 28.100238867867027,-16.337641589493984 A 70.36535571410354 70.36535571410354 0 0 0 21.40063509461097,-12.933012701892217 Z M 81.35082103713671,-17.857212639472692 L 80.99883662898415,-16.921206776020185 A 69.36535571410354 69.36535571410354 0 0 1 87.78387460411732,-13.947046808428677 L 86.43447353792583,-11.267659422744916 L 94.26067868174468,-11.245008884929144 L 89.58307602570598,-17.51956332267369 L 88.23367495951449,-14.84017593698993 A 70.36535571410354 70.36535571410354 0 0 0 81.35082103713671,-17.857212639472692"/><text text-anchor="middle" pointer-events="none" font-size="8px" fill="#000000" x="54.59043009696528" y="-18.831753922307612" transform="rotate(180 54.59043009696528 -21.831753922307612)" font-family="sans-serif">PURCHASED</text></g><g class="relationship" transform="translate(54.53068117410082 222.70414254344414) rotate(311.57212019641986)"><path class="outline" fill="#A5ABB6" stroke="none" d="M 25 0.5 L 26.579867898976325 0.5 L 26.579867898976325 -0.5 L 25 -0.5 Z M 76.84158664897632 0.5 L 78.42145454795265 0.5 L 78.42145454795265 3.5 L 85.42145454795265 0 L 78.42145454795265 -3.5 L 78.42145454795265 -0.5 L 76.84158664897632 -0.5 Z"/><text text-anchor="middle" pointer-events="none" font-size="8px" fill="#000000" x="51.710727273976325" y="3" font-family="sans-serif">PURCHAS…</text></g><g class="relationship" transform="translate(54.53068117410082 222.70414254344414) rotate(366.85672783754353)"><path class="outline" fill="#A5ABB6" stroke="none" d="M 25 0.5 L 29.42540742165076 0.5 L 29.42540742165076 -0.5 L 25 -0.5 Z M 83.67150117165076 0.5 L 88.09690859330152 0.5 L 88.09690859330152 3.5 L 95.09690859330152 0 L 88.09690859330152 -3.5 L 88.09690859330152 -0.5 L 83.67150117165076 -0.5 Z"/><text text-anchor="middle" pointer-events="none" font-size="8px" fill="#000000" x="56.54845429665076" y="3" font-family="sans-serif">PURCHASED</text></g><g class="relationship" transform="translate(54.53068117410082 222.70414254344414) rotate(418.6795604058724)"><path class="outline" fill="#A5ABB6" stroke="none" d="M 25 0.5 L 27.19913101038196 0.5 L 27.19913101038196 -0.5 L 25 -0.5 Z M 81.44522476038196 0.5 L 83.64435577076392 0.5 L 83.64435577076392 3.5 L 90.64435577076392 0 L 83.64435577076392 -3.5 L 83.64435577076392 -0.5 L 81.44522476038196 -0.5 Z"/><text text-anchor="middle" pointer-events="none" font-size="8px" fill="#000000" x="54.32217788538196" y="3" font-family="sans-serif">PURCHASED</text></g><g class="relationship" transform="translate(54.53068117410082 222.70414254344414) rotate(186.44560463047605)"><path class="outline" fill="#A5ABB6" stroke="none" d="M 25 0.5 L 27.671406572888003 0.5 L 27.671406572888003 -0.5 L 25 -0.5 Z M 81.917500322888 0.5 L 84.588906895776 0.5 L 84.588906895776 3.5 L 91.588906895776 0 L 84.588906895776 -3.5 L 84.588906895776 -0.5 L 81.917500322888 -0.5 Z"/><text text-anchor="middle" pointer-events="none" font-size="8px" fill="#000000" x="54.794453447888" y="3" transform="rotate(180 54.794453447888 0)" font-family="sans-serif">PURCHASED</text></g><g class="relationship" transform="translate(54.53068117410082 222.70414254344414) rotate(233.86298416496464)"><path class="outline" fill="#A5ABB6" stroke="none" d="M 25 0.5 L 27.308902736696517 0.5 L 27.308902736696517 -0.5 L 25 -0.5 Z M 81.55499648669652 0.5 L 83.86389922339303 0.5 L 83.86389922339303 3.5 L 90.86389922339303 0 L 83.86389922339303 -3.5 L 83.86389922339303 -0.5 L 81.55499648669652 -0.5 Z"/><text text-anchor="middle" pointer-events="none" font-size="8px" fill="#000000" x="54.43194961169652" y="3" transform="rotate(180 54.43194961169652 0)" font-family="sans-serif">PURCHASED</text></g><g class="relationship" transform="translate(54.53068117410082 222.70414254344414) rotate(482.6320201999507)"><path class="outline" fill="#A5ABB6" stroke="none" d="M 25 0.5 L 25.071846207524686 0.5 L 25.071846207524686 -0.5 L 25 -0.5 Z M 79.31793995752469 0.5 L 79.38978616504937 0.5 L 79.38978616504937 3.5 L 86.38978616504937 0 L 79.38978616504937 -3.5 L 79.38978616504937 -0.5 L 79.31793995752469 -0.5 Z"/><text text-anchor="middle" pointer-events="none" font-size="8px" fill="#000000" x="52.194893082524686" y="3" transform="rotate(180 52.194893082524686 0)" font-family="sans-serif">PURCHASED</text></g><g class="relationship" transform="translate(54.53068117410082 222.70414254344414) rotate(418.6795604058724)"><path class="outline" fill="#A5ABB6" stroke="none" d="M 21.40063509461097,12.933012701892217 L 21.90063509461097,12.06698729810778 A 68.39285234412473 68.39285234412473 0 0 0 28.056321709218235,15.217318480084423 L 27.646326532874873,16.129406170701493 A 69.39285234412473 69.39285234412473 0 0 1 21.40063509461097,12.933012701892217 Z M 80.86349932329752,17.659809668864085 L 80.50659746352376,16.72566778323319 A 68.39285234412473 68.39285234412473 0 0 0 86.83315375589999,13.934297200027764 L 85.48493863827737,11.254312872347125 L 93.31115304009191,11.235125980188442 L 88.63077391273013,17.507609636935282 L 87.28255879510752,14.827625309254643 A 69.39285234412473 69.39285234412473 0 0 1 80.86349932329752,17.659809668864085"/><text text-anchor="middle" pointer-events="none" font-size="8px" fill="#000000" x="54.11667999987423" y="24.701422354547645" font-family="sans-serif">PURCHASED</text></g><g class="relationship" transform="translate(54.53068117410082 222.70414254344414) rotate(366.85672783754353)"><path class="outline" fill="#A5ABB6" stroke="none" d="M 21.40063509461097,12.933012701892217 L 21.90063509461097,12.06698729810778 A 72.97332141296386 72.97332141296386 0 0 0 30.179269633683052,16.171150209035744 L 29.792717046775604,17.093417576752486 A 73.97332141296386 73.97332141296386 0 0 1 21.40063509461097,12.933012701892217 Z M 83.1554061356364,18.573845321683507 L 82.8205812303672,17.631564958515796 A 72.97332141296386 72.97332141296386 0 0 0 91.3140284974741,13.992705720811148 L 89.96038039462654,11.315461463434321 L 97.78653978182795,11.280400857062984 L 93.11889263460417,17.56236473064692 L 91.76524453175661,14.885120473270092 A 73.97332141296386 73.97332141296386 0 0 1 83.1554061356364,18.573845321683507"/><text text-anchor="middle" pointer-events="none" font-size="8px" fill="#000000" x="56.34972777708703" y="25.315300135028778" font-family="sans-serif">PURCHASED</text></g><g class="relationship" transform="translate(54.53068117410082 222.70414254344414) rotate(311.57212019641986)"><path class="outline" fill="#A5ABB6" stroke="none" d="M 21.40063509461097,12.933012701892217 L 21.90063509461097,12.06698729810778 A 63.00675613834147 63.00675613834147 0 0 0 25.594585665964384,14.039019556266268 L 25.153213514750043,14.93634370290026 A 64.00675613834147 64.00675613834147 0 0 1 21.40063509461097,12.933012701892217 Z M 78.15545735030706,16.528909539344326 L 77.76875685679933,15.606704178092897 A 63.00675613834147 63.00675613834147 0 0 0 81.57444438362344,13.860014595197518 L 80.23313911988369,11.17656528703759 L 88.05937697995324,11.177543864498052 L 83.36285140194313,17.437947006077422 L 82.02154613820338,14.754497697917495 A 64.00675613834147 64.00675613834147 0 0 1 78.15545735030706,16.528909539344326"/><text text-anchor="middle" pointer-events="none" font-size="8px" fill="#000000" x="51.49667758264883" y="23.979643485789417" font-family="sans-serif">PURCHASED</text></g><g class="relationship" transform="translate(54.53068117410082 222.70414254344414) rotate(233.86298416496464)"><path class="outline" fill="#A5ABB6" stroke="none" d="M 21.40063509461097,12.933012701892217 L 21.90063509461097,12.06698729810778 A 68.61893343377793 68.61893343377793 0 0 0 28.160529224003643,15.26536055796165 L 27.751756146605608,16.177996614226437 A 69.61893343377793 69.61893343377793 0 0 1 21.40063509461097,12.933012701892217 Z M 80.97682699858277,17.705871146806544 L 80.62108002049035,16.771288840330485 A 68.61893343377793 68.61893343377793 0 0 0 87.05413926142974,13.937278462241338 L 85.70564683056021,11.257433660039613 L 93.53185920504535,11.237436923912727 L 88.85212916925578,17.51040486517697 L 87.50363673838625,14.830560062975245 A 69.61893343377793 69.61893343377793 0 0 1 80.97682699858277,17.705871146806544"/><text text-anchor="middle" pointer-events="none" font-size="8px" fill="#000000" x="54.226796342091475" y="24.731720757163615" transform="rotate(180 54.226796342091475 21.731720757163615)" font-family="sans-serif">PURCHASED</text></g><g class="relationship" transform="translate(54.53068117410082 222.70414254344414) rotate(482.6320201999507)"><path class="outline" fill="#A5ABB6" stroke="none" d="M 21.40063509461097,12.933012701892217 L 21.90063509461097,12.06698729810778 A 64.0064999424293 64.0064999424293 0 0 0 26.04824603473643,14.26294300582397 L 25.613045874500454,15.16327673313323 A 65.0064999424293 65.0064999424293 0 0 1 21.40063509461097,12.933012701892217 Z M 78.65944542667856,16.744028490047207 L 78.27862873322826,15.819377936600347 A 64.0064999424293 64.0064999424293 0 0 0 82.54964029030683,13.874292267484233 L 81.20700687415784,11.19150723885445 L 89.03324425980115,11.188611801241564 L 84.33981817850547,17.451338972323946 L 82.99718476235648,14.768553943694162 A 65.0064999424293 65.0064999424293 0 0 1 78.65944542667856,16.744028490047207"/><text text-anchor="middle" pointer-events="none" font-size="8px" fill="#000000" x="51.98248192234881" y="24.113610289456332" transform="rotate(180 51.98248192234881 21.113610289456332)" font-family="sans-serif">PURCHASED</text></g><g class="relationship" transform="translate(54.53068117410082 222.70414254344414) rotate(186.44560463047605)"><path class="outline" fill="#A5ABB6" stroke="none" d="M 21.40063509461097,12.933012701892217 L 21.90063509461097,12.06698729810778 A 69.36535571410354 69.36535571410354 0 0 0 28.505027187271292,15.423231169346742 L 28.10023886786702,16.337641589493984 A 70.36535571410354 70.36535571410354 0 0 1 21.40063509461097,12.933012701892217 Z M 81.35082103713673,17.857212639472692 L 80.99883662898415,16.921206776020185 A 69.36535571410354 69.36535571410354 0 0 0 87.78387460411732,13.947046808428677 L 86.43447353792583,11.267659422744916 L 94.26067868174468,11.245008884929144 L 89.58307602570598,17.51956332267369 L 88.23367495951449,14.84017593698993 A 70.36535571410354 70.36535571410354 0 0 1 81.35082103713673,17.857212639472692"/><text text-anchor="middle" pointer-events="none" font-size="8px" fill="#000000" x="54.59043009696528" y="24.831753922307612" transform="rotate(180 54.59043009696528 21.831753922307612)" font-family="sans-serif">PURCHASED</text></g><g class="relationship" transform="translate(171.72832082451833 -44.05123031117694) rotate(311.19610529217977)"><path class="outline" fill="#A5ABB6" stroke="none" d="M 21.40063509461097,-12.933012701892217 L 21.90063509461097,-12.06698729810778 A 60.07988750064826 60.07988750064826 0 0 1 24.276387955165706,-13.368120966599093 L 23.81593118601029,-14.255803096496365 A 61.07988750064826 61.07988750064826 0 0 0 21.40063509461097,-12.933012701892217 Z M 76.67562831346757,-15.883659647976941 L 76.27066605042688,-14.969326248437703 A 60.07988750064826 60.07988750064826 0 0 1 78.72197991087042,-13.81684595129022 L 77.38469040284762,-11.13139314557343 L 85.2109180422134,-11.144079233523193 L 80.50503258823413,-17.397449692245942 L 79.16774308021134,-14.711996886529151 A 61.07988750064826 61.07988750064826 0 0 0 76.67562831346757,-15.883659647976941"/><text text-anchor="middle" pointer-events="none" font-size="8px" fill="#000000" x="50.07585689477003" y="-17.587459970938745" font-family="sans-serif">PURCHASED</text></g><g class="relationship" transform="translate(171.72832082451833 -44.05123031117694) rotate(229.04425609943814)"><path class="outline" fill="#A5ABB6" stroke="none" d="M 21.40063509461097,-12.933012701892217 L 21.90063509461097,-12.06698729810778 A 66.4464344942864 66.4464344942864 0 0 1 27.161909272203456,-14.79920316522805 L 26.741089956880298,-15.706347643164698 A 67.4464344942864 67.4464344942864 0 0 0 21.40063509461097,-12.933012701892217 Z M 79.8867804410726,-17.258792412683178 L 79.5196308906925,-16.32863048718005 A 66.4464344942864 66.4464344942864 0 0 1 84.93141999229088,-13.90818667742818 L 83.58563366632482,-11.226981880169534 L 91.41186224022206,-11.214886049717148 L 86.72580176024563,-17.483126407106376 L 85.38001543427957,-14.801921609847728 A 67.4464344942864 67.4464344942864 0 0 0 79.8867804410726,-17.258792412683178"/><text text-anchor="middle" pointer-events="none" font-size="8px" fill="#000000" x="53.16910628359165" y="-18.44057746324728" transform="rotate(180 53.16910628359165 -21.44057746324728)" font-family="sans-serif">PURCHASED</text></g><g class="relationship" transform="translate(171.72832082451833 -44.05123031117694) rotate(534.9773997754207)"><path class="outline" fill="#A5ABB6" stroke="none" d="M 21.40063509461097,-12.933012701892217 L 21.90063509461097,-12.06698729810778 A 65.88243358915213 65.88243358915213 0 0 1 26.90370508662391,-14.676484679727615 L 26.479644448900846,-15.582118477426171 A 66.88243358915213 66.88243358915213 0 0 0 21.40063509461097,-12.933012701892217 Z M 79.60338968714134,-17.141039784941796 L 79.23316485426429,-16.212097605298112 A 65.88243358915213 65.88243358915213 0 0 1 84.38064574906112,-13.900469095488875 L 83.03557731803987,-11.218904083062355 L 90.86180884989321,-11.208903591843722 L 86.17407032375611,-17.47588911205757 L 84.82900189273487,-14.79432409963105 A 66.88243358915213 66.88243358915213 0 0 0 79.60338968714134,-17.141039784941796"/><text text-anchor="middle" pointer-events="none" font-size="8px" fill="#000000" x="52.894691326442064" y="-18.364996078823438" transform="rotate(180 52.894691326442064 -21.364996078823438)" font-family="sans-serif">PURCHASED</text></g><g class="relationship" transform="translate(171.72832082451833 -44.05123031117694) rotate(389.4244551089902)"><path class="outline" fill="#A5ABB6" stroke="none" d="M 21.40063509461097,-12.933012701892217 L 21.90063509461097,-12.06698729810778 A 66.11976842652317 66.11976842652317 0 0 1 27.01230406573197,-14.728213604527753 L 26.589613304599034,-15.63448758101216 A 67.11976842652317 67.11976842652317 0 0 0 21.40063509461097,-12.933012701892217 Z M 79.722663820448,-17.19067861693852 L 79.35373905963506,-16.26121935432444 A 66.11976842652317 66.11976842652317 0 0 1 84.61239917456695,-13.903725150741423 L 83.26702786252224,-11.222312084329028 L 91.09325821486998,-11.21142760037252 L 86.40622759062654,-17.478942572624618 L 85.06085627858184,-14.797529506212221 A 67.11976842652317 67.11976842652317 0 0 0 79.722663820448,-17.19067861693852"/><text text-anchor="middle" pointer-events="none" font-size="8px" fill="#000000" x="53.010157949289884" y="-18.39680105050732" font-family="sans-serif">PURCHASED</text></g><g class="relationship" transform="translate(171.72832082451833 -44.05123031117694) rotate(389.4244551089902)"><path class="outline" fill="#A5ABB6" stroke="none" d="M 25 0.5 L 26.096136675819984 0.5 L 26.096136675819984 -0.5 L 25 -0.5 Z M 80.34223042581999 0.5 L 81.43836710163997 0.5 L 81.43836710163997 3.5 L 88.43836710163997 0 L 81.43836710163997 -3.5 L 81.43836710163997 -0.5 L 80.34223042581999 -0.5 Z"/><text text-anchor="middle" pointer-events="none" font-size="8px" fill="#000000" x="53.219183550819984" y="3" font-family="sans-serif">PURCHASED</text></g><g class="relationship" transform="translate(171.72832082451833 -44.05123031117694) rotate(534.9773997754207)"><path class="outline" fill="#A5ABB6" stroke="none" d="M 25 0.5 L 25.98104510172378 0.5 L 25.98104510172378 -0.5 L 25 -0.5 Z M 80.22713885172378 0.5 L 81.20818395344756 0.5 L 81.20818395344756 3.5 L 88.20818395344756 0 L 81.20818395344756 -3.5 L 81.20818395344756 -0.5 L 80.22713885172378 -0.5 Z"/><text text-anchor="middle" pointer-events="none" font-size="8px" fill="#000000" x="53.10409197672378" y="3" transform="rotate(180 53.10409197672378 0)" font-family="sans-serif">PURCHASED</text></g><g class="relationship" transform="translate(171.72832082451833 -44.05123031117694) rotate(229.04425609943814)"><path class="outline" fill="#A5ABB6" stroke="none" d="M 25 0.5 L 26.254570900355375 0.5 L 26.254570900355375 -0.5 L 25 -0.5 Z M 80.50066465035538 0.5 L 81.75523555071075 0.5 L 81.75523555071075 3.5 L 88.75523555071075 0 L 81.75523555071075 -3.5 L 81.75523555071075 -0.5 L 80.50066465035538 -0.5 Z"/><text text-anchor="middle" pointer-events="none" font-size="8px" fill="#000000" x="53.377617775355375" y="3" transform="rotate(180 53.377617775355375 0)" font-family="sans-serif">PURCHASED</text></g><g class="relationship" transform="translate(171.72832082451833 -44.05123031117694) rotate(311.19610529217977)"><path class="outline" fill="#A5ABB6" stroke="none" d="M 25 0.5 L 25.163986336593332 0.5 L 25.163986336593332 -0.5 L 25 -0.5 Z M 75.42570508659333 0.5 L 75.58969142318666 0.5 L 75.58969142318666 3.5 L 82.58969142318666 0 L 75.58969142318666 -3.5 L 75.58969142318666 -0.5 L 75.42570508659333 -0.5 Z"/><text text-anchor="middle" pointer-events="none" font-size="8px" fill="#000000" x="50.29484571159333" y="3" font-family="sans-serif">PURCHAS…</text></g><g class="relationship" transform="translate(171.72832082451833 -44.05123031117694) rotate(229.04425609943814)"><path class="outline" fill="#A5ABB6" stroke="none" d="M 21.40063509461097,12.933012701892217 L 21.90063509461097,12.06698729810778 A 66.4464344942864 66.4464344942864 0 0 0 27.161909272203463,14.799203165228057 L 26.741089956880305,15.706347643164705 A 67.4464344942864 67.4464344942864 0 0 1 21.40063509461097,12.933012701892217 Z M 79.8867804410726,17.258792412683178 L 79.5196308906925,16.32863048718005 A 66.4464344942864 66.4464344942864 0 0 0 84.93141999229088,13.90818667742818 L 83.58563366632482,11.226981880169534 L 91.41186224022206,11.214886049717148 L 86.72580176024563,17.483126407106376 L 85.38001543427957,14.801921609847728 A 67.4464344942864 67.4464344942864 0 0 1 79.8867804410726,17.258792412683178"/><text text-anchor="middle" pointer-events="none" font-size="8px" fill="#000000" x="53.16910628359166" y="24.44057746324728" transform="rotate(180 53.16910628359166 21.44057746324728)" font-family="sans-serif">PURCHASED</text></g><g class="relationship" transform="translate(171.72832082451833 -44.05123031117694) rotate(534.9773997754207)"><path class="outline" fill="#A5ABB6" stroke="none" d="M 21.40063509461097,12.933012701892217 L 21.90063509461097,12.06698729810778 A 65.88243358915213 65.88243358915213 0 0 0 26.903705086623898,14.676484679727615 L 26.479644448900835,15.582118477426171 A 66.88243358915213 66.88243358915213 0 0 1 21.40063509461097,12.933012701892217 Z M 79.60338968714134,17.141039784941796 L 79.23316485426429,16.212097605298112 A 65.88243358915213 65.88243358915213 0 0 0 84.38064574906112,13.900469095488875 L 83.03557731803987,11.218904083062355 L 90.86180884989321,11.208903591843722 L 86.17407032375611,17.47588911205757 L 84.82900189273487,14.79432409963105 A 66.88243358915213 66.88243358915213 0 0 1 79.60338968714134,17.141039784941796"/><text text-anchor="middle" pointer-events="none" font-size="8px" fill="#000000" x="52.89469132644206" y="24.364996078823438" transform="rotate(180 52.89469132644206 21.364996078823438)" font-family="sans-serif">PURCHASED</text></g><g class="relationship" transform="translate(171.72832082451833 -44.05123031117694) rotate(389.4244551089902)"><path class="outline" fill="#A5ABB6" stroke="none" d="M 21.40063509461097,12.933012701892217 L 21.90063509461097,12.06698729810778 A 66.11976842652317 66.11976842652317 0 0 0 27.012304065731996,14.72821360452776 L 26.589613304599062,15.634487581012166 A 67.11976842652317 67.11976842652317 0 0 1 21.40063509461097,12.933012701892217 Z M 79.72266382044802,17.190678616938513 L 79.35373905963507,16.26121935432443 A 66.11976842652317 66.11976842652317 0 0 0 84.61239917456695,13.903725150741423 L 83.26702786252224,11.222312084329028 L 91.09325821486998,11.21142760037252 L 86.40622759062654,17.478942572624618 L 85.06085627858184,14.797529506212221 A 67.11976842652317 67.11976842652317 0 0 1 79.72266382044802,17.190678616938513"/><text text-anchor="middle" pointer-events="none" font-size="8px" fill="#000000" x="53.01015794928991" y="24.39680105050732" font-family="sans-serif">PURCHASED</text></g><g class="relationship" transform="translate(171.72832082451833 -44.05123031117694) rotate(311.19610529217977)"><path class="outline" fill="#A5ABB6" stroke="none" d="M 21.40063509461097,12.933012701892217 L 21.90063509461097,12.06698729810778 A 60.07988750064826 60.07988750064826 0 0 0 24.276387955165703,13.368120966599093 L 23.815931186010285,14.255803096496365 A 61.07988750064826 61.07988750064826 0 0 1 21.40063509461097,12.933012701892217 Z M 76.67562831346757,15.883659647976941 L 76.2706660504269,14.969326248437703 A 60.07988750064826 60.07988750064826 0 0 0 78.72197991087042,13.81684595129022 L 77.38469040284762,11.13139314557343 L 85.2109180422134,11.144079233523193 L 80.50503258823413,17.397449692245942 L 79.16774308021134,14.711996886529151 A 61.07988750064826 61.07988750064826 0 0 1 76.67562831346757,15.883659647976941"/><text text-anchor="middle" pointer-events="none" font-size="8px" fill="#000000" x="50.075856894770034" y="23.587459970938745" font-family="sans-serif">PURCHASED</text></g></g><g class="layer nodes"><g class="node" transform="translate(54.53068117410082,222.70414254344414)"><circle class="outline" cx="0" cy="0" r="25" fill="#8DCC93" stroke="#5db665" stroke-width="2px"/><text text-anchor="middle" pointer-events="none" font-family="sans-serif" dy="1.5625" font-size="25" fill="#2A2C34"/><text text-anchor="middle" pointer-events="none" font-family="sans-serif" dy="1.5625" font-size="25" fill="#2A2C34"/><text text-anchor="middle" pointer-events="none" x="0" y="0" font-size="10px" fill="#2A2C34" font-family="sans-serif"> Maria</text><text text-anchor="middle" pointer-events="none" x="0" y="10" font-size="10px" fill="#2A2C34" font-family="sans-serif"> Anders</text></g><g class="node" transform="translate(-5.535315543184484,316.51118119329436)"><circle class="outline" cx="0" cy="0" r="25" fill="#4C8EDA" stroke="#2870c2" stroke-width="2px"/><text text-anchor="middle" pointer-events="none" font-family="sans-serif" dy="1.5625" font-size="25" fill="#FFFFFF"/><text text-anchor="middle" pointer-events="none" font-family="sans-serif" dy="1.5625" font-size="25" fill="#FFFFFF"/><text text-anchor="middle" pointer-events="none" x="0" y="0" font-size="10px" fill="#FFFFFF" font-family="sans-serif"> Alfred's</text><text text-anchor="middle" pointer-events="none" x="0" y="10" font-size="10px" fill="#FFFFFF" font-family="sans-serif"> Futterki…</text></g><g class="node" transform="translate(114.64538084923399,321.49604456280787)"><circle class="outline" cx="0" cy="0" r="25" fill="#4C8EDA" stroke="#2870c2" stroke-width="2px"/><text text-anchor="middle" pointer-events="none" font-family="sans-serif" dy="1.5625" font-size="25" fill="#FFFFFF"/><text text-anchor="middle" pointer-events="none" font-family="sans-serif" dy="1.5625" font-size="25" fill="#FFFFFF"/><text text-anchor="middle" pointer-events="none" x="0" y="0" font-size="10px" fill="#FFFFFF" font-family="sans-serif"> Alfred's</text><text text-anchor="middle" pointer-events="none" x="0" y="10" font-size="10px" fill="#FFFFFF" font-family="sans-serif"> Futterki…</text></g><g class="node" transform="translate(173.76863159405076,237.04215611985637)"><circle class="outline" cx="0" cy="0" r="25" fill="#4C8EDA" stroke="#2870c2" stroke-width="2px"/><text text-anchor="middle" pointer-events="none" font-family="sans-serif" dy="1.5625" font-size="25" fill="#FFFFFF"/><text text-anchor="middle" pointer-events="none" font-family="sans-serif" dy="1.5625" font-size="25" fill="#FFFFFF"/><text text-anchor="middle" pointer-events="none" x="0" y="0" font-size="10px" fill="#FFFFFF" font-family="sans-serif"> Alfred's</text><text text-anchor="middle" pointer-events="none" x="0" y="10" font-size="10px" fill="#FFFFFF" font-family="sans-serif"> Futterki…</text></g><g class="node" transform="translate(127.80219107635352,140.09552640003173)"><circle class="outline" cx="0" cy="0" r="25" fill="#4C8EDA" stroke="#2870c2" stroke-width="2px"/><text text-anchor="middle" pointer-events="none" font-family="sans-serif" dy="1.5625" font-size="25" fill="#FFFFFF"/><text text-anchor="middle" pointer-events="none" font-family="sans-serif" dy="1.5625" font-size="25" fill="#FFFFFF"/><text text-anchor="middle" pointer-events="none" x="0" y="0" font-size="10px" fill="#FFFFFF" font-family="sans-serif"> Alfreds</text><text text-anchor="middle" pointer-events="none" x="0" y="10" font-size="10px" fill="#FFFFFF" font-family="sans-serif"> Futterki…</text></g><g class="node" transform="translate(-13.796372948981766,129.13140710138325)"><circle class="outline" cx="0" cy="0" r="25" fill="#4C8EDA" stroke="#2870c2" stroke-width="2px"/><text text-anchor="middle" pointer-events="none" font-family="sans-serif" dy="1.5625" font-size="25" fill="#FFFFFF"/><text text-anchor="middle" pointer-events="none" font-family="sans-serif" dy="1.5625" font-size="25" fill="#FFFFFF"/><text text-anchor="middle" pointer-events="none" x="0" y="0" font-size="10px" fill="#FFFFFF" font-family="sans-serif"> Alfred's</text><text text-anchor="middle" pointer-events="none" x="0" y="10" font-size="10px" fill="#FFFFFF" font-family="sans-serif"> Futterki…</text></g><g class="node" transform="translate(-61.321253317206924,209.61588499044402)"><circle class="outline" cx="0" cy="0" r="25" fill="#4C8EDA" stroke="#2870c2" stroke-width="2px"/><text text-anchor="middle" pointer-events="none" font-family="sans-serif" dy="1.5625" font-size="25" fill="#FFFFFF"/><text text-anchor="middle" pointer-events="none" font-family="sans-serif" dy="1.5625" font-size="25" fill="#FFFFFF"/><text text-anchor="middle" pointer-events="none" x="0" y="0" font-size="10px" fill="#FFFFFF" font-family="sans-serif"> Alfred's</text><text text-anchor="middle" pointer-events="none" x="0" y="10" font-size="10px" fill="#FFFFFF" font-family="sans-serif"> Futterki…</text></g><g class="node" transform="translate(171.72832082451833,-44.05123031117694)"><circle class="outline" cx="0" cy="0" r="25" fill="#8DCC93" stroke="#5db665" stroke-width="2px"/><text text-anchor="middle" pointer-events="none" font-family="sans-serif" dy="1.5625" font-size="25" fill="#2A2C34"/><text text-anchor="middle" pointer-events="none" font-family="sans-serif" dy="1.5625" font-size="25" fill="#2A2C34"/><text text-anchor="middle" pointer-events="none" x="0" y="0" font-size="10px" fill="#2A2C34" font-family="sans-serif"> Ana</text><text text-anchor="middle" pointer-events="none" x="0" y="10" font-size="10px" fill="#2A2C34" font-family="sans-serif"> Trujillo</text></g><g class="node" transform="translate(242.59101366205329,-125.00813529370267)"><circle class="outline" cx="0" cy="0" r="25" fill="#4C8EDA" stroke="#2870c2" stroke-width="2px"/><text text-anchor="middle" pointer-events="none" font-family="sans-serif" dy="1.5625" font-size="25" fill="#FFFFFF"/><text text-anchor="middle" pointer-events="none" font-family="sans-serif" dy="1.5625" font-size="25" fill="#FFFFFF"/><text text-anchor="middle" pointer-events="none" font-family="sans-serif" dy="1.5625" font-size="25" fill="#FFFFFF"/><text text-anchor="middle" pointer-events="none" x="0" y="-5" font-size="10px" fill="#FFFFFF" font-family="sans-serif"> Ana</text><text text-anchor="middle" pointer-events="none" x="0" y="5" font-size="10px" fill="#FFFFFF" font-family="sans-serif"> Trujillo</text><text text-anchor="middle" pointer-events="none" x="0" y="15" font-size="10px" fill="#FFFFFF" font-family="sans-serif"> Empar…</text></g><g class="node" transform="translate(97.16450717376702,-129.96101618597538)"><circle class="outline" cx="0" cy="0" r="25" fill="#4C8EDA" stroke="#2870c2" stroke-width="2px"/><text text-anchor="middle" pointer-events="none" font-family="sans-serif" dy="1.5625" font-size="25" fill="#FFFFFF"/><text text-anchor="middle" pointer-events="none" font-family="sans-serif" dy="1.5625" font-size="25" fill="#FFFFFF"/><text text-anchor="middle" pointer-events="none" font-family="sans-serif" dy="1.5625" font-size="25" fill="#FFFFFF"/><text text-anchor="middle" pointer-events="none" x="0" y="-5" font-size="10px" fill="#FFFFFF" font-family="sans-serif"> Ana</text><text text-anchor="middle" pointer-events="none" x="0" y="5" font-size="10px" fill="#FFFFFF" font-family="sans-serif"> Trujillo</text><text text-anchor="middle" pointer-events="none" x="0" y="15" font-size="10px" fill="#FFFFFF" font-family="sans-serif"> Empar…</text></g><g class="node" transform="translate(58.9548288833319,-34.14000286808081)"><circle class="outline" cx="0" cy="0" r="25" fill="#4C8EDA" stroke="#2870c2" stroke-width="2px"/><text text-anchor="middle" pointer-events="none" font-family="sans-serif" dy="1.5625" font-size="25" fill="#FFFFFF"/><text text-anchor="middle" pointer-events="none" font-family="sans-serif" dy="1.5625" font-size="25" fill="#FFFFFF"/><text text-anchor="middle" pointer-events="none" font-family="sans-serif" dy="1.5625" font-size="25" fill="#FFFFFF"/><text text-anchor="middle" pointer-events="none" x="0" y="-5" font-size="10px" fill="#FFFFFF" font-family="sans-serif"> Ana</text><text text-anchor="middle" pointer-events="none" x="0" y="5" font-size="10px" fill="#FFFFFF" font-family="sans-serif"> Trujillo</text><text text-anchor="middle" pointer-events="none" x="0" y="15" font-size="10px" fill="#FFFFFF" font-family="sans-serif"> Empar…</text></g><g class="node" transform="translate(270.53361537001035,11.678267268336532)"><circle class="outline" cx="0" cy="0" r="25" fill="#4C8EDA" stroke="#2870c2" stroke-width="2px"/><text text-anchor="middle" pointer-events="none" font-family="sans-serif" dy="1.5625" font-size="25" fill="#FFFFFF"/><text text-anchor="middle" pointer-events="none" font-family="sans-serif" dy="1.5625" font-size="25" fill="#FFFFFF"/><text text-anchor="middle" pointer-events="none" font-family="sans-serif" dy="1.5625" font-size="25" fill="#FFFFFF"/><text text-anchor="middle" pointer-events="none" x="0" y="-5" font-size="10px" fill="#FFFFFF" font-family="sans-serif"> Ana</text><text text-anchor="middle" pointer-events="none" x="0" y="5" font-size="10px" fill="#FFFFFF" font-family="sans-serif"> Trujillo</text><text text-anchor="middle" pointer-events="none" x="0" y="15" font-size="10px" fill="#FFFFFF" font-family="sans-serif"> Empar…</text></g></g></svg>